<svg width="1184" height="108" viewBox="0 0 1184 108" fill="none" xmlns="http://www.w3.org/2000/svg">
<path d="M106.769 2.2V106H93.1189V28.6L58.6189 106H49.0189L14.3689 28.45V106H0.718946V2.2H15.4189L53.8189 88L92.219 2.2H106.769ZM143.568 12.55V47.5H181.668V58.75H143.568V94.75H186.168V106H129.918V1.3H186.168V12.55H143.568ZM220.472 12.55V47.5H258.572V58.75H220.472V94.75H263.072V106H206.822V1.3H263.072V12.55H220.472ZM348.077 1.45V12.55H319.577V106H305.927V12.55H277.277V1.45H348.077ZM469.219 1.45V12.55H440.719V106H427.069V12.55H398.419V1.45H469.219ZM566.572 1.45V106H552.922V58.6H499.672V106H486.022V1.45H499.672V47.35H552.922V1.45H566.572ZM603.529 12.55V47.5H641.629V58.75H603.529V94.75H646.129V106H589.879V1.3H646.129V12.55H603.529ZM739.324 1.45C750.724 1.45 760.574 3.6 768.874 7.89999C777.274 12.1 783.674 18.15 788.074 26.05C792.574 33.95 794.824 43.25 794.824 53.95C794.824 64.65 792.574 73.95 788.074 81.85C783.674 89.65 777.274 95.65 768.874 99.85C760.574 103.95 750.724 106 739.324 106H706.774V1.45H739.324ZM739.324 94.75C752.824 94.75 763.124 91.2 770.224 84.1C777.324 76.9 780.874 66.85 780.874 53.95C780.874 40.95 777.274 30.8 770.074 23.5C762.974 16.2 752.724 12.55 739.324 12.55H720.424V94.75H739.324ZM867.878 106L842.978 63.25H826.478V106H812.828V1.45H846.578C854.478 1.45 861.128 2.8 866.528 5.5C872.028 8.2 876.128 11.85 878.828 16.45C881.528 21.05 882.878 26.3 882.878 32.2C882.878 39.4 880.778 45.75 876.578 51.25C872.478 56.75 866.278 60.4 857.978 62.2L884.228 106H867.878ZM826.478 52.3H846.578C853.978 52.3 859.528 50.5 863.228 46.9C866.928 43.2 868.778 38.3 868.778 32.2C868.778 26 866.928 21.2 863.228 17.8C859.628 14.4 854.078 12.7 846.578 12.7H826.478V52.3ZM951.488 107.05C941.788 107.05 932.938 104.8 924.938 100.3C916.938 95.7 910.588 89.35 905.888 81.25C901.288 73.05 898.988 63.85 898.988 53.65C898.988 43.45 901.288 34.3 905.888 26.2C910.588 18 916.938 11.65 924.938 7.14999C932.938 2.54999 941.788 0.249994 951.488 0.249994C961.288 0.249994 970.188 2.54999 978.188 7.14999C986.188 11.65 992.488 17.95 997.088 26.05C1001.69 34.15 1003.99 43.35 1003.99 53.65C1003.99 63.95 1001.69 73.15 997.088 81.25C992.488 89.35 986.188 95.7 978.188 100.3C970.188 104.8 961.288 107.05 951.488 107.05ZM951.488 95.2C958.788 95.2 965.338 93.5 971.138 90.1C977.038 86.7 981.638 81.85 984.938 75.55C988.338 69.25 990.038 61.95 990.038 53.65C990.038 45.25 988.338 37.95 984.938 31.75C981.638 25.45 977.088 20.6 971.288 17.2C965.488 13.8 958.888 12.1 951.488 12.1C944.088 12.1 937.488 13.8 931.688 17.2C925.888 20.6 921.288 25.45 917.888 31.75C914.588 37.95 912.938 45.25 912.938 53.65C912.938 61.95 914.588 69.25 917.888 75.55C921.288 81.85 925.888 86.7 931.688 90.1C937.588 93.5 944.188 95.2 951.488 95.2ZM1104.21 106H1090.56L1035.66 22.75V106H1022.01V1.3H1035.66L1090.56 84.4V1.3H1104.21V106ZM1141.13 12.55V47.5H1179.23V58.75H1141.13V94.75H1183.73V106H1127.48V1.3H1183.73V12.55H1141.13Z" fill="black"/>
</svg>
