<svg width="943" height="143" viewBox="0 0 943 143" fill="none" xmlns="http://www.w3.org/2000/svg">
    <path d="M46.9149 140H5.73089V127.936H45.0429C56.5522 127.936 66.2589 125.925 74.1629 121.904C82.0669 117.883 88.0989 111.643 92.2589 103.184C96.4189 94.7253 98.4989 83.7707 98.4989 70.32C98.4989 56.8693 96.4189 45.9147 92.2589 37.456C88.0989 28.9973 82.0669 22.7573 74.1629 18.736C66.2589 14.7147 56.5522 12.704 45.0429 12.704H5.73089V0.639997H46.9149C61.6136 0.639997 73.8162 3.41333 83.5229 8.95999C93.2296 14.368 100.44 22.272 105.155 32.672C110.008 43.072 112.435 55.6213 112.435 70.32C112.435 85.0187 110.008 97.568 105.155 107.968C100.44 118.368 93.2296 126.341 83.5229 131.888C73.8162 137.296 61.6136 140 46.9149 140ZM14.6749 140H0.946886V0.639997H14.6749V140ZM194.99 142.08C185.976 142.08 177.934 139.931 170.862 135.632C163.79 131.333 158.243 125.301 154.222 117.536C150.339 109.632 148.398 100.48 148.398 90.08C148.398 79.4027 150.339 70.1813 154.222 62.416C158.243 54.6507 163.79 48.688 170.862 44.528C177.934 40.2293 185.976 38.08 194.99 38.08C204.142 38.08 212.254 40.2293 219.326 44.528C226.398 48.688 231.875 54.6507 235.758 62.416C239.779 70.1813 241.79 79.4027 241.79 90.08C241.79 100.48 239.779 109.632 235.758 117.536C231.875 125.301 226.398 131.333 219.326 135.632C212.254 139.931 204.142 142.08 194.99 142.08ZM194.99 130.432C201.646 130.432 207.4 128.907 212.254 125.856C217.246 122.805 221.128 118.299 223.902 112.336C226.675 106.235 228.062 98.816 228.062 90.08C228.062 81.2053 226.675 73.7867 223.902 67.824C221.128 61.7227 217.246 57.1467 212.254 54.096C207.4 50.9067 201.646 49.312 194.99 49.312C188.611 49.312 182.926 50.9067 177.934 54.096C172.942 57.1467 169.059 61.7227 166.286 67.824C163.512 73.7867 162.126 81.2053 162.126 90.08C162.126 98.816 163.512 106.235 166.286 112.336C169.059 118.299 172.942 122.805 177.934 125.856C182.926 128.907 188.611 130.432 194.99 130.432ZM422.381 140H408.653V75.52C408.653 66.784 406.712 60.2667 402.829 55.968C398.946 51.6693 393.192 49.52 385.565 49.52C379.602 49.52 374.68 51.0453 370.797 54.096C366.914 57.1467 364.002 61.168 362.061 66.16C360.12 71.152 359.149 76.4907 359.149 82.176L358.109 75.52C358.525 69.0027 360.05 62.9013 362.685 57.216C365.458 51.5307 369.272 46.9547 374.125 43.488C379.117 39.8827 385.218 38.08 392.429 38.08C401.997 38.08 409.346 40.992 414.477 46.816C419.746 52.5013 422.381 61.0293 422.381 72.4V140ZM296.125 140H282.397V40.16H296.125V140ZM359.149 140H345.629V75.52C345.629 66.784 343.688 60.2667 339.805 55.968C335.922 51.6693 330.098 49.52 322.333 49.52C316.37 49.52 311.448 51.0453 307.565 54.096C303.821 57.1467 300.978 61.168 299.037 66.16C297.096 71.152 296.125 76.4907 296.125 82.176L295.085 75.52C295.501 69.0027 297.026 62.9013 299.661 57.216C302.434 51.5307 306.248 46.9547 311.101 43.488C316.093 39.8827 322.125 38.08 329.197 38.08C338.765 38.08 346.114 40.992 351.245 46.816C356.514 52.5013 359.149 61.0293 359.149 72.4V140ZM480.952 22.272H467.224V0.639997H480.952V22.272ZM480.952 140H467.224V40.16H480.952V140ZM608.468 140H594.74V75.728C594.74 67.6853 592.798 61.3067 588.916 56.592C585.033 51.8773 578.724 49.52 569.988 49.52C563.054 49.52 557.369 51.0453 552.932 54.096C548.633 57.1467 545.444 61.168 543.364 66.16C541.422 71.152 540.452 76.4907 540.452 82.176L539.412 75.52C539.828 69.0027 541.422 62.9013 544.196 57.216C546.969 51.5307 550.921 46.9547 556.052 43.488C561.321 39.8827 567.769 38.08 575.396 38.08C585.241 38.08 593.214 40.992 599.316 46.816C605.417 52.5013 608.468 61.0987 608.468 72.608V140ZM540.452 140H526.724V40.16H540.452V140ZM735.603 140H726.451C723.123 140 720.211 139.445 717.715 138.336C715.219 137.227 713.278 135.424 711.891 132.928C710.504 130.432 709.811 127.104 709.811 122.944V78.848L709.395 74.064C709.395 66.576 707.523 60.752 703.779 56.592C700.174 52.432 694.28 50.352 686.099 50.352C678.611 50.352 672.232 52.224 666.963 55.968C661.694 59.712 657.742 64.3573 655.107 69.904L645.539 60.336C647.619 56.8693 650.6 53.4027 654.483 49.936C658.366 46.4693 663.08 43.6267 668.627 41.408C674.174 39.1893 680.483 38.08 687.555 38.08C699.203 38.08 708.008 41.2693 713.971 47.648C719.934 53.888 722.915 62.624 722.915 73.856V120.656C722.915 123.291 723.47 125.163 724.579 126.272C725.827 127.243 727.63 127.728 729.987 127.728H735.603V140ZM673.619 142.08C665.438 142.08 659.059 140.069 654.483 136.048C650.046 131.888 647.827 126.48 647.827 119.824C647.827 113.307 650.046 107.899 654.483 103.6C658.92 99.1627 664.606 95.3493 671.539 92.16L711.891 73.856L713.763 83.216L677.363 100.48C671.955 102.976 667.934 105.611 665.299 108.384C662.803 111.019 661.555 114.208 661.555 117.952C661.555 122.112 662.942 125.301 665.715 127.52C668.627 129.6 672.579 130.64 677.571 130.64C682.147 130.64 686.376 129.877 690.259 128.352C694.28 126.688 697.747 124.539 700.659 121.904C703.571 119.131 705.79 116.149 707.315 112.96C708.979 109.632 709.811 106.235 709.811 102.768L710.227 110.256C709.395 115.248 707.384 120.24 704.195 125.232C701.144 130.085 696.984 134.107 691.715 137.296C686.584 140.485 680.552 142.08 673.619 142.08ZM803.91 142.288C798.779 142.288 794.134 141.248 789.974 139.168C785.952 137.088 782.763 133.968 780.406 129.808C778.048 125.648 776.87 120.587 776.87 114.624V25.808L790.39 15.616V110.88C790.39 118.091 791.984 122.944 795.174 125.44C798.363 127.936 802.176 129.184 806.614 129.184C811.051 129.184 815.003 127.867 818.47 125.232C821.936 122.459 824.502 119.269 826.166 115.664L830.95 128.976C828.731 132.581 825.264 135.701 820.55 138.336C815.835 140.971 810.288 142.288 803.91 142.288ZM823.878 50.768H760.646V40.16H823.878V50.768ZM900.186 142.08C890.895 142.08 882.645 140.069 875.434 136.048C868.362 131.888 862.815 125.925 858.794 118.16C854.911 110.395 852.97 101.035 852.97 90.08C852.97 79.1253 854.842 69.7653 858.586 62C862.469 54.2347 867.877 48.3413 874.81 44.32C881.743 40.16 889.647 38.08 898.522 38.08C907.674 38.08 915.509 40.0213 922.026 43.904C928.682 47.648 933.813 53.1947 937.418 60.544C941.023 67.7547 942.826 76.4213 942.826 86.544C942.826 87.792 942.757 89.04 942.618 90.288C942.479 91.3973 942.341 92.368 942.202 93.2H862.746V83.216H933.882L930.554 87.584C930.554 74.8267 927.642 65.2587 921.818 58.88C916.133 52.5013 908.367 49.312 898.522 49.312C888.677 49.312 880.773 52.64 874.81 59.296C868.986 65.952 866.074 75.8667 866.074 89.04V91.12C866.074 99.856 867.461 107.205 870.234 113.168C873.146 118.992 877.167 123.36 882.298 126.272C887.429 129.184 893.391 130.64 900.186 130.64C906.981 130.64 912.527 129.6 916.826 127.52C921.263 125.44 924.799 122.805 927.434 119.616C930.069 116.288 932.079 113.029 933.466 109.84L941.786 119.616C938.181 125.717 932.981 130.987 926.186 135.424C919.53 139.861 910.863 142.08 900.186 142.08Z"
          fill="black"/>
</svg>
