<svg width="1200" height="96" viewBox="0 0 1200 96" fill="none" xmlns="http://www.w3.org/2000/svg">
<path d="M91.571 86.608V7.01199L56.855 94H50.783L15.671 6.88V86.608C15.671 88.104 15.935 89.16 16.463 89.776C17.079 90.392 17.915 90.7 18.971 90.7H28.079V94H0.358953V90.7H7.61895C8.85095 90.7 9.81895 90.392 10.523 89.776C11.227 89.16 11.579 88.104 11.579 86.608V8.99199C11.579 7.496 11.271 6.44 10.655 5.82399C10.039 5.208 9.24695 4.9 8.27895 4.9H0.358953V1.59999H22.139L55.799 85.156L89.327 1.59999H110.975V4.9H103.055C101.911 4.9 101.031 5.208 100.415 5.82399C99.887 6.44 99.623 7.496 99.623 8.99199V86.608C99.623 88.104 99.887 89.16 100.415 89.776C101.031 90.392 101.911 90.7 103.055 90.7H110.975V94H79.295V90.7H88.271C89.327 90.7 90.119 90.392 90.647 89.776C91.263 89.16 91.571 88.104 91.571 86.608ZM143.768 44.236H162.512C165.856 44.236 168.408 43.62 170.168 42.388C171.928 41.068 172.808 38.472 172.808 34.6V30.244H176.504V61.396H172.808V57.04C172.808 53.08 171.928 50.484 170.168 49.252C168.408 48.02 165.856 47.404 162.512 47.404H143.768V85.552C143.768 86.872 144.032 87.928 144.56 88.72C145.176 89.424 146.496 89.952 148.52 90.304C150.632 90.568 153.976 90.7 158.552 90.7H168.716C173.82 90.7 177.868 90.48 180.86 90.04C183.94 89.6 186.228 88.588 187.724 87.004C189.308 85.332 190.408 82.78 191.024 79.348C191.728 75.916 192.124 71.208 192.212 65.224H196.04V94H124.496V90.7H132.416C133.472 90.7 134.264 90.392 134.792 89.776C135.408 89.16 135.716 88.104 135.716 86.608V8.99199C135.716 7.496 135.408 6.44 134.792 5.82399C134.264 5.208 133.472 4.9 132.416 4.9H124.496V1.59999H196.04V30.112H192.212C192.124 24.128 191.728 19.42 191.024 15.988C190.408 12.556 189.308 10.048 187.724 8.464C186.228 6.88 183.94 5.912 180.86 5.56C177.868 5.12 173.82 4.9 168.716 4.9H143.768V44.236ZM232.713 44.236H251.457C254.801 44.236 257.353 43.62 259.113 42.388C260.873 41.068 261.753 38.472 261.753 34.6V30.244H265.449V61.396H261.753V57.04C261.753 53.08 260.873 50.484 259.113 49.252C257.353 48.02 254.801 47.404 251.457 47.404H232.713V85.552C232.713 86.872 232.977 87.928 233.505 88.72C234.121 89.424 235.441 89.952 237.465 90.304C239.577 90.568 242.921 90.7 247.497 90.7H257.661C262.765 90.7 266.813 90.48 269.805 90.04C272.885 89.6 275.173 88.588 276.669 87.004C278.253 85.332 279.353 82.78 279.969 79.348C280.673 75.916 281.069 71.208 281.157 65.224H284.985V94H213.441V90.7H221.361C222.417 90.7 223.209 90.392 223.737 89.776C224.353 89.16 224.661 88.104 224.661 86.608V8.99199C224.661 7.496 224.353 6.44 223.737 5.82399C223.209 5.208 222.417 4.9 221.361 4.9H213.441V1.59999H284.985V30.112H281.157C281.069 24.128 280.673 19.42 279.969 15.988C279.353 12.556 278.253 10.048 276.669 8.464C275.173 6.88 272.885 5.912 269.805 5.56C266.813 5.12 262.765 4.9 257.661 4.9H232.713V44.236ZM354.394 90.7V94H320.998V90.7H330.238C331.382 90.7 332.218 90.392 332.746 89.776C333.362 89.16 333.67 88.104 333.67 86.608V4.9H326.014C320.998 4.9 316.994 5.12 314.002 5.56C311.098 5.912 308.854 6.924 307.27 8.596C305.774 10.18 304.718 12.688 304.102 16.12C303.574 19.552 303.178 24.304 302.914 30.376H299.218V1.59999H376.174V30.376H372.478C372.302 24.304 371.906 19.552 371.29 16.12C370.674 12.688 369.574 10.18 367.99 8.596C366.494 6.924 364.25 5.912 361.258 5.56C358.354 5.12 354.438 4.9 349.51 4.9H341.722V86.608C341.722 88.104 341.986 89.16 342.514 89.776C343.13 90.392 344.01 90.7 345.154 90.7H354.394ZM463.965 90.7V94H430.569V90.7H439.809C440.953 90.7 441.789 90.392 442.317 89.776C442.933 89.16 443.241 88.104 443.241 86.608V4.9H435.585C430.569 4.9 426.565 5.12 423.573 5.56C420.669 5.912 418.425 6.924 416.841 8.596C415.345 10.18 414.289 12.688 413.673 16.12C413.145 19.552 412.749 24.304 412.485 30.376H408.789V1.59999H485.745V30.376H482.049C481.873 24.304 481.477 19.552 480.861 16.12C480.245 12.688 479.145 10.18 477.561 8.596C476.065 6.924 473.821 5.912 470.829 5.56C467.925 5.12 464.009 4.9 459.081 4.9H451.293V86.608C451.293 88.104 451.557 89.16 452.085 89.776C452.701 90.392 453.581 90.7 454.725 90.7H463.965ZM496.003 1.59999H526.363V4.9H518.707C517.563 4.9 516.683 5.208 516.067 5.82399C515.539 6.44 515.275 7.496 515.275 8.99199V44.236H571.639V8.99199C571.639 7.496 571.331 6.44 570.715 5.82399C570.099 5.208 569.263 4.9 568.207 4.9H560.551V1.59999H590.911V4.9H582.991C581.935 4.9 581.099 5.208 580.483 5.82399C579.867 6.44 579.559 7.496 579.559 8.99199V86.608C579.559 88.104 579.867 89.16 580.483 89.776C581.099 90.392 581.935 90.7 582.991 90.7H590.911V94H560.551V90.7H568.207C569.263 90.7 570.099 90.392 570.715 89.776C571.331 89.16 571.639 88.104 571.639 86.608V47.668H515.275V86.608C515.275 88.104 515.539 89.16 516.067 89.776C516.683 90.392 517.563 90.7 518.707 90.7H526.363V94H496.003V90.7H503.923C504.979 90.7 505.771 90.392 506.299 89.776C506.915 89.16 507.223 88.104 507.223 86.608V8.99199C507.223 7.496 506.915 6.44 506.299 5.82399C505.771 5.208 504.979 4.9 503.923 4.9H496.003V1.59999ZM623.686 44.236H642.43C645.774 44.236 648.326 43.62 650.086 42.388C651.846 41.068 652.726 38.472 652.726 34.6V30.244H656.422V61.396H652.726V57.04C652.726 53.08 651.846 50.484 650.086 49.252C648.326 48.02 645.774 47.404 642.43 47.404H623.686V85.552C623.686 86.872 623.95 87.928 624.478 88.72C625.094 89.424 626.414 89.952 628.438 90.304C630.55 90.568 633.894 90.7 638.47 90.7H648.634C653.738 90.7 657.786 90.48 660.778 90.04C663.858 89.6 666.146 88.588 667.642 87.004C669.226 85.332 670.326 82.78 670.942 79.348C671.646 75.916 672.042 71.208 672.13 65.224H675.958V94H604.414V90.7H612.334C613.39 90.7 614.182 90.392 614.71 89.776C615.326 89.16 615.634 88.104 615.634 86.608V8.99199C615.634 7.496 615.326 6.44 614.71 5.82399C614.182 5.208 613.39 4.9 612.334 4.9H604.414V1.59999H675.958V30.112H672.13C672.042 24.128 671.646 19.42 670.942 15.988C670.326 12.556 669.226 10.048 667.642 8.464C666.146 6.88 663.858 5.912 660.778 5.56C657.786 5.12 653.738 4.9 648.634 4.9H623.686V44.236ZM719.542 4.9V1.59999H752.674C764.378 1.59999 774.278 3.492 782.374 7.276C790.558 11.06 796.718 16.384 800.854 23.248C805.078 30.024 807.19 38.032 807.19 47.272C807.19 56.512 805.254 64.652 801.382 71.692C797.598 78.644 791.834 84.1 784.09 88.06C776.434 92.02 766.93 94 755.578 94H719.542V90.7H726.802C727.858 90.7 728.65 90.392 729.178 89.776C729.794 89.16 730.102 88.104 730.102 86.608V8.99199C730.102 7.496 729.794 6.44 729.178 5.82399C728.65 5.208 727.858 4.9 726.802 4.9H719.542ZM738.154 87.268C738.154 88.764 738.418 89.732 738.946 90.172C739.562 90.524 740.486 90.7 741.718 90.7H754.786C763.322 90.7 770.846 89.248 777.358 86.344C783.87 83.352 788.974 78.732 792.67 72.484C796.454 66.148 798.346 57.92 798.346 47.8C798.346 40.496 797.334 34.336 795.31 29.32C793.374 24.304 790.734 20.212 787.39 17.044C784.134 13.788 780.482 11.28 776.434 9.51999C772.386 7.76 768.25 6.572 764.026 5.95599C759.89 5.252 755.93 4.9 752.146 4.9H738.154V87.268ZM822.652 4.9V1.59999H857.236C870.348 1.59999 880.072 3.75599 886.408 8.068C892.744 12.292 895.912 18.496 895.912 26.68C895.912 32.224 894.24 37.064 890.896 41.2C887.64 45.248 882.14 48.152 874.396 49.912C880.644 50.88 885.528 53.124 889.048 56.644C892.656 60.076 894.46 64.696 894.46 70.504V81.592C894.46 85.376 894.812 87.972 895.516 89.38C896.308 90.788 897.408 91.492 898.816 91.492C900.312 91.492 901.412 91.008 902.116 90.04C902.82 89.072 903.172 87.356 903.172 84.892V78.028H906.736V85.156C906.736 88.588 905.988 91.14 904.492 92.812C902.996 94.484 900.62 95.32 897.364 95.32C894.108 95.32 891.468 94.352 889.444 92.416C887.508 90.392 886.54 86.784 886.54 81.592V72.616C886.54 64.784 884.472 59.372 880.336 56.38C876.288 53.3 869.556 51.76 860.14 51.76H841.924V86.608C841.924 88.104 842.188 89.16 842.716 89.776C843.332 90.392 844.212 90.7 845.356 90.7H854.2V94H822.652V90.7H830.572C831.628 90.7 832.42 90.392 832.948 89.776C833.564 89.16 833.872 88.104 833.872 86.608V8.99199C833.872 7.496 833.564 6.44 832.948 5.82399C832.42 5.208 831.628 4.9 830.572 4.9H822.652ZM854.464 4.9H841.924V48.46H855.652C864.012 48.46 870.436 47.536 874.924 45.688C879.5 43.84 882.668 41.288 884.428 38.032C886.276 34.776 887.2 31.036 887.2 26.812C887.2 22.412 886.276 18.584 884.428 15.328C882.58 11.984 879.28 9.432 874.528 7.67199C869.864 5.824 863.176 4.9 854.464 4.9ZM1008.32 47.8C1008.32 57.304 1006.51 65.62 1002.91 72.748C999.298 79.876 994.238 85.42 987.726 89.38C981.214 93.34 973.602 95.32 964.89 95.32C956.178 95.32 948.566 93.34 942.054 89.38C935.542 85.42 930.482 79.876 926.874 72.748C923.266 65.62 921.462 57.304 921.462 47.8C921.462 38.208 923.266 29.892 926.874 22.852C930.482 15.724 935.542 10.18 942.054 6.22C948.566 2.26 956.178 0.279995 964.89 0.279995C973.602 0.279995 981.214 2.26 987.726 6.22C994.238 10.18 999.298 15.724 1002.91 22.852C1006.51 29.892 1008.32 38.208 1008.32 47.8ZM930.57 47.8C930.57 61.792 933.606 72.66 939.678 80.404C945.75 88.148 954.242 92.02 965.154 92.02C975.978 92.02 984.382 88.148 990.366 80.404C996.35 72.66 999.342 61.792 999.342 47.8C999.342 33.808 996.306 22.94 990.234 15.196C984.25 7.45199 975.802 3.57999 964.89 3.57999C953.978 3.57999 945.53 7.45199 939.546 15.196C933.562 22.94 930.57 33.808 930.57 47.8ZM1104.11 8.99199V94H1097.78L1039.83 11.104V86.608C1039.83 88.104 1040.09 89.16 1040.62 89.776C1041.24 90.392 1042.12 90.7 1043.26 90.7H1052.37V94H1024.65V90.7H1032.57C1033.62 90.7 1034.42 90.392 1034.94 89.776C1035.56 89.16 1035.87 88.104 1035.87 86.608V8.99199C1035.87 7.496 1035.56 6.44 1034.94 5.82399C1034.42 5.208 1033.62 4.9 1032.57 4.9H1024.65V1.59999H1042.86L1100.15 83.572V8.99199C1100.15 7.496 1099.84 6.44 1099.23 5.82399C1098.7 5.208 1097.91 4.9 1096.85 4.9H1087.74V1.59999H1115.33V4.9H1107.54C1106.4 4.9 1105.52 5.208 1104.9 5.82399C1104.38 6.44 1104.11 7.496 1104.11 8.99199ZM1147.43 44.236H1166.18C1169.52 44.236 1172.07 43.62 1173.83 42.388C1175.59 41.068 1176.47 38.472 1176.47 34.6V30.244H1180.17V61.396H1176.47V57.04C1176.47 53.08 1175.59 50.484 1173.83 49.252C1172.07 48.02 1169.52 47.404 1166.18 47.404H1147.43V85.552C1147.43 86.872 1147.7 87.928 1148.22 88.72C1148.84 89.424 1150.16 89.952 1152.18 90.304C1154.3 90.568 1157.64 90.7 1162.22 90.7H1172.38C1177.48 90.7 1181.53 90.48 1184.52 90.04C1187.6 89.6 1189.89 88.588 1191.39 87.004C1192.97 85.332 1194.07 82.78 1194.69 79.348C1195.39 75.916 1195.79 71.208 1195.88 65.224H1199.7V94H1128.16V90.7H1136.08C1137.14 90.7 1137.93 90.392 1138.46 89.776C1139.07 89.16 1139.38 88.104 1139.38 86.608V8.99199C1139.38 7.496 1139.07 6.44 1138.46 5.82399C1137.93 5.208 1137.14 4.9 1136.08 4.9H1128.16V1.59999H1199.7V30.112H1195.88C1195.79 24.128 1195.39 19.42 1194.69 15.988C1194.07 12.556 1192.97 10.048 1191.39 8.464C1189.89 6.88 1187.6 5.912 1184.52 5.56C1181.53 5.12 1177.48 4.9 1172.38 4.9H1147.43V44.236Z" fill="black"/>
</svg>
